# xmcd
#
# Track frame offsets:
#	150
#	27617
#	46647
#	59205
#	75530
#	94781
#	115373
#	140003
#	153078
#	165292
#	181618
#	192551
#	212130
#	228418
#	245572
#	257056
#	274257
#	291038
#	306119
#	321672
#
# Disc length: 4429 seconds
#
# Revision: 2
# Processed by: cddbd v1.4PL0 Copyright (c) Steve Scherf et al.
# Submitted via: audiograbber 1.80
#
DISCID=24114b14
DTITLE=BRUNO and MARRONE - AS INÉDITAS
DYEAR=1900
DGENRE=
TTITLE0=NOSSA SENHORA
TTITLE1=BIJUTERIA
TTITLE2=SEM VOCÊ
TTITLE3=QUE PENA
TTITLE4=COR DO AMOR
TTITLE5=PASSOU DA CONTA
TTITLE6=POUT POURRI
TTITLE7=24 HORAS DE AMOR
TTITLE8=FIO DE CABELO
TTITLE9=ESTA NOITE EU QUERIA QUE O MUNDO ACABASSE
TTITLE10=NORENA PROIBIDA
TTITLE11=NUNCA MAIS CAMINHAREI SOZINHO
TTITLE12=RANCHO DO VALE
TTITLE13=MEU SEGREDO
TTITLE14=PEDAÇO DE POEMA
TTITLE15=RINDO A TOA
TTITLE16=SEU CORAÇÃO
TTITLE17=SOZINHO NA NOITE
TTITLE18=TA COMBINADO ASSIM
TTITLE19=VOLTA PRA MIM
EXTD=
EXTT0=
EXTT1=
EXTT2=
EXTT3=
EXTT4=
EXTT5=
EXTT6=
EXTT7=
EXTT8=
EXTT9=
EXTT10=
EXTT11=
EXTT12=
EXTT13=
EXTT14=
EXTT15=
EXTT16=
EXTT17=
EXTT18=
EXTT19=
PLAYORDER=
